<mxfile host="app.diagrams.net" modified="2024-03-02T00:27:21.927Z" agent="Mozilla/5.0 (Windows NT 10.0; Win64; x64) AppleWebKit/537.36 (KHTML, like Gecko) Chrome/122.0.0.0 Safari/537.36" etag="Kr2usRuraRQRN3tGYXWd" version="24.0.0" type="device">
  <diagram name="Page-1" id="B73snQ-Z8GxG6X1UaP72">
    <mxGraphModel dx="1687" dy="915" grid="1" gridSize="10" guides="1" tooltips="1" connect="1" arrows="1" fold="1" page="1" pageScale="1" pageWidth="850" pageHeight="1100" math="0" shadow="0">
      <root>
        <mxCell id="0" />
        <mxCell id="1" parent="0" />
        <mxCell id="p7MjhTOm8zEY9oJfQGLG-51" style="edgeStyle=orthogonalEdgeStyle;rounded=0;orthogonalLoop=1;jettySize=auto;html=1;entryX=0;entryY=0.5;entryDx=0;entryDy=0;" edge="1" parent="1" source="p7MjhTOm8zEY9oJfQGLG-29" target="p7MjhTOm8zEY9oJfQGLG-36">
          <mxGeometry relative="1" as="geometry" />
        </mxCell>
        <mxCell id="p7MjhTOm8zEY9oJfQGLG-52" style="edgeStyle=orthogonalEdgeStyle;rounded=0;orthogonalLoop=1;jettySize=auto;html=1;entryX=0;entryY=0.5;entryDx=0;entryDy=0;" edge="1" parent="1" source="p7MjhTOm8zEY9oJfQGLG-29" target="p7MjhTOm8zEY9oJfQGLG-33">
          <mxGeometry relative="1" as="geometry">
            <Array as="points">
              <mxPoint x="133" y="215" />
            </Array>
          </mxGeometry>
        </mxCell>
        <mxCell id="p7MjhTOm8zEY9oJfQGLG-53" style="edgeStyle=orthogonalEdgeStyle;rounded=0;orthogonalLoop=1;jettySize=auto;html=1;entryX=0;entryY=0.5;entryDx=0;entryDy=0;" edge="1" parent="1" source="p7MjhTOm8zEY9oJfQGLG-29" target="p7MjhTOm8zEY9oJfQGLG-40">
          <mxGeometry relative="1" as="geometry">
            <Array as="points">
              <mxPoint x="133" y="705" />
            </Array>
          </mxGeometry>
        </mxCell>
        <mxCell id="p7MjhTOm8zEY9oJfQGLG-29" value="Smart Sensing Chair Sensors" style="rounded=1;whiteSpace=wrap;html=1;fillColor=#ffe6cc;strokeColor=#d79b00;" vertex="1" parent="1">
          <mxGeometry x="43" y="420" width="190" height="60" as="geometry" />
        </mxCell>
        <mxCell id="p7MjhTOm8zEY9oJfQGLG-54" style="edgeStyle=orthogonalEdgeStyle;rounded=0;orthogonalLoop=1;jettySize=auto;html=1;entryX=0;entryY=0.5;entryDx=0;entryDy=0;" edge="1" parent="1" source="p7MjhTOm8zEY9oJfQGLG-33" target="p7MjhTOm8zEY9oJfQGLG-45">
          <mxGeometry relative="1" as="geometry" />
        </mxCell>
        <mxCell id="p7MjhTOm8zEY9oJfQGLG-56" style="edgeStyle=orthogonalEdgeStyle;rounded=0;orthogonalLoop=1;jettySize=auto;html=1;entryX=0;entryY=0.5;entryDx=0;entryDy=0;" edge="1" parent="1" source="p7MjhTOm8zEY9oJfQGLG-33" target="p7MjhTOm8zEY9oJfQGLG-44">
          <mxGeometry relative="1" as="geometry" />
        </mxCell>
        <mxCell id="p7MjhTOm8zEY9oJfQGLG-57" style="edgeStyle=orthogonalEdgeStyle;rounded=0;orthogonalLoop=1;jettySize=auto;html=1;entryX=0;entryY=0.5;entryDx=0;entryDy=0;" edge="1" parent="1" source="p7MjhTOm8zEY9oJfQGLG-33" target="p7MjhTOm8zEY9oJfQGLG-41">
          <mxGeometry relative="1" as="geometry" />
        </mxCell>
        <mxCell id="p7MjhTOm8zEY9oJfQGLG-33" value="Pressure Sensors" style="rounded=1;whiteSpace=wrap;html=1;strokeColor=#82b366;align=center;verticalAlign=middle;fontFamily=Helvetica;fontSize=12;fillColor=#d5e8d4;" vertex="1" parent="1">
          <mxGeometry x="323" y="190" width="140" height="50" as="geometry" />
        </mxCell>
        <mxCell id="p7MjhTOm8zEY9oJfQGLG-58" style="edgeStyle=orthogonalEdgeStyle;rounded=0;orthogonalLoop=1;jettySize=auto;html=1;entryX=0;entryY=0.5;entryDx=0;entryDy=0;" edge="1" parent="1" source="p7MjhTOm8zEY9oJfQGLG-36" target="p7MjhTOm8zEY9oJfQGLG-43">
          <mxGeometry relative="1" as="geometry" />
        </mxCell>
        <mxCell id="p7MjhTOm8zEY9oJfQGLG-59" style="edgeStyle=orthogonalEdgeStyle;rounded=0;orthogonalLoop=1;jettySize=auto;html=1;entryX=0;entryY=0.5;entryDx=0;entryDy=0;" edge="1" parent="1" source="p7MjhTOm8zEY9oJfQGLG-36" target="p7MjhTOm8zEY9oJfQGLG-42">
          <mxGeometry relative="1" as="geometry" />
        </mxCell>
        <mxCell id="p7MjhTOm8zEY9oJfQGLG-36" value="Motion Sensors" style="rounded=1;whiteSpace=wrap;html=1;fillColor=#d5e8d4;strokeColor=#82b366;" vertex="1" parent="1">
          <mxGeometry x="323" y="425" width="140" height="50" as="geometry" />
        </mxCell>
        <mxCell id="p7MjhTOm8zEY9oJfQGLG-60" style="edgeStyle=orthogonalEdgeStyle;rounded=0;orthogonalLoop=1;jettySize=auto;html=1;entryX=0;entryY=0.5;entryDx=0;entryDy=0;" edge="1" parent="1" source="p7MjhTOm8zEY9oJfQGLG-40" target="p7MjhTOm8zEY9oJfQGLG-47">
          <mxGeometry relative="1" as="geometry" />
        </mxCell>
        <mxCell id="p7MjhTOm8zEY9oJfQGLG-61" style="edgeStyle=orthogonalEdgeStyle;rounded=0;orthogonalLoop=1;jettySize=auto;html=1;entryX=0;entryY=0.5;entryDx=0;entryDy=0;" edge="1" parent="1" source="p7MjhTOm8zEY9oJfQGLG-40" target="p7MjhTOm8zEY9oJfQGLG-46">
          <mxGeometry relative="1" as="geometry" />
        </mxCell>
        <mxCell id="p7MjhTOm8zEY9oJfQGLG-62" style="edgeStyle=orthogonalEdgeStyle;rounded=0;orthogonalLoop=1;jettySize=auto;html=1;entryX=0;entryY=0.5;entryDx=0;entryDy=0;" edge="1" parent="1" source="p7MjhTOm8zEY9oJfQGLG-40" target="p7MjhTOm8zEY9oJfQGLG-48">
          <mxGeometry relative="1" as="geometry" />
        </mxCell>
        <mxCell id="p7MjhTOm8zEY9oJfQGLG-40" value="Others" style="rounded=1;whiteSpace=wrap;html=1;fillColor=#d5e8d4;strokeColor=#82b366;" vertex="1" parent="1">
          <mxGeometry x="323" y="680" width="140" height="50" as="geometry" />
        </mxCell>
        <mxCell id="p7MjhTOm8zEY9oJfQGLG-41" value="FSR Sensor" style="rounded=1;whiteSpace=wrap;html=1;strokeColor=#6c8ebf;align=center;verticalAlign=middle;fontFamily=Helvetica;fontSize=12;fillColor=#dae8fc;" vertex="1" parent="1">
          <mxGeometry x="668" y="240" width="140" height="50" as="geometry" />
        </mxCell>
        <mxCell id="p7MjhTOm8zEY9oJfQGLG-42" value="Accelerometer" style="rounded=1;whiteSpace=wrap;html=1;strokeColor=#6c8ebf;align=center;verticalAlign=middle;fontFamily=Helvetica;fontSize=12;fillColor=#dae8fc;" vertex="1" parent="1">
          <mxGeometry x="668" y="460" width="140" height="50" as="geometry" />
        </mxCell>
        <mxCell id="p7MjhTOm8zEY9oJfQGLG-43" value="Gyroscope" style="rounded=1;whiteSpace=wrap;html=1;strokeColor=#6c8ebf;align=center;verticalAlign=middle;fontFamily=Helvetica;fontSize=12;fillColor=#dae8fc;fontColor=default;" vertex="1" parent="1">
          <mxGeometry x="668" y="390" width="140" height="50" as="geometry" />
        </mxCell>
        <mxCell id="p7MjhTOm8zEY9oJfQGLG-44" value="Textile Pressure Sensor" style="rounded=1;whiteSpace=wrap;html=1;strokeColor=#6c8ebf;align=center;verticalAlign=middle;fontFamily=Helvetica;fontSize=12;fillColor=#dae8fc;" vertex="1" parent="1">
          <mxGeometry x="668" y="140" width="140" height="50" as="geometry" />
        </mxCell>
        <mxCell id="p7MjhTOm8zEY9oJfQGLG-45" value="Load Cells" style="rounded=1;whiteSpace=wrap;html=1;strokeColor=#6c8ebf;align=center;verticalAlign=middle;fontFamily=Helvetica;fontSize=12;fillColor=#dae8fc;" vertex="1" parent="1">
          <mxGeometry x="668" y="50" width="140" height="50" as="geometry" />
        </mxCell>
        <mxCell id="p7MjhTOm8zEY9oJfQGLG-46" value="Flex Sensor" style="rounded=1;whiteSpace=wrap;html=1;strokeColor=#6c8ebf;align=center;verticalAlign=middle;fontFamily=Helvetica;fontSize=12;fillColor=#dae8fc;fontColor=default;" vertex="1" parent="1">
          <mxGeometry x="668" y="710" width="140" height="50" as="geometry" />
        </mxCell>
        <mxCell id="p7MjhTOm8zEY9oJfQGLG-47" value="Image Sensor" style="rounded=1;whiteSpace=wrap;html=1;strokeColor=#6c8ebf;align=center;verticalAlign=middle;fontFamily=Helvetica;fontSize=12;fillColor=#dae8fc;fontColor=default;" vertex="1" parent="1">
          <mxGeometry x="668" y="600" width="140" height="50" as="geometry" />
        </mxCell>
        <mxCell id="p7MjhTOm8zEY9oJfQGLG-48" value="Ultrasonic Proximity Sensor" style="rounded=1;whiteSpace=wrap;html=1;strokeColor=#6c8ebf;align=center;verticalAlign=middle;fontFamily=Helvetica;fontSize=12;fillColor=#dae8fc;fontColor=default;" vertex="1" parent="1">
          <mxGeometry x="668" y="805" width="140" height="50" as="geometry" />
        </mxCell>
      </root>
    </mxGraphModel>
  </diagram>
</mxfile>
